<svg version="1.1" id="Layer_1" xmlns="http://www.w3.org/2000/svg" xmlns:xlink="http://www.w3.org/1999/xlink" x="0px" y="0px"
	 width="100%" viewBox="0 0 500 500" enable-background="new 0 0 500 500" xml:space="preserve">
<path fill="#000000" opacity="1.000000" stroke="none" 
	d="
M280.000000,501.000000 
	C186.666687,501.000000 93.833374,501.000000 1.000050,501.000000 
	C1.000033,334.333405 1.000033,167.666794 1.000017,1.000139 
	C167.666565,1.000093 334.333130,1.000093 500.999756,1.000046 
	C500.999847,167.666519 500.999847,334.333038 500.999939,500.999786 
	C427.500000,501.000000 354.000000,501.000000 280.000000,501.000000 
M303.006317,185.993484 
	C303.006317,185.993484 302.932281,185.925919 302.683380,185.604614 
	C302.503235,185.400208 302.300446,185.221436 302.006592,184.993729 
	C302.006592,184.993729 301.931824,184.925507 301.682861,184.604492 
	C301.502716,184.400238 301.300079,184.221497 301.006531,183.993576 
	C301.006531,183.993576 300.931671,183.925339 300.682953,183.604645 
	C300.503052,183.400589 300.300629,183.222031 300.005402,182.994171 
	C300.005402,182.994171 299.928741,182.925919 299.640381,182.585037 
	C299.430634,182.370117 299.196381,182.186523 298.456451,181.832489 
	C297.638397,181.883835 296.820312,181.935196 295.276093,182.077194 
	C286.157898,185.382675 285.023926,186.979065 285.004303,196.577820 
	C284.994415,201.403580 284.997772,206.229355 284.588715,211.763168 
	C284.389038,213.557983 284.023376,215.352173 284.016846,217.147690 
	C283.977051,228.068481 284.019043,238.989594 284.024841,250.859070 
	C284.018158,256.342957 283.854645,261.832520 284.054077,267.308899 
	C284.215607,271.743683 283.976440,275.719452 278.160431,277.437500 
	C282.774658,276.758728 283.922241,279.212158 283.623871,282.901703 
	C276.324951,285.903290 269.026001,288.904877 260.994263,291.792236 
	C260.568939,291.565369 260.143646,291.338501 259.890900,290.174316 
	C259.708069,276.452637 259.525238,262.730957 259.574615,248.108032 
	C259.320190,243.429688 259.065765,238.751328 258.968475,233.151062 
	C258.733490,229.437302 258.498505,225.723526 258.422272,221.305786 
	C258.234253,219.888626 258.046234,218.471481 257.961182,216.199112 
	C257.478821,212.967102 257.168640,209.693878 256.410797,206.527817 
	C256.178650,205.557907 254.732010,204.263794 253.817596,204.244339 
	C252.895767,204.224747 251.694046,205.445984 251.078522,206.417328 
	C250.503937,207.324051 250.538208,208.616577 249.944962,210.172272 
	C249.974060,211.448425 250.003159,212.724579 250.011292,214.935165 
	C249.811401,220.210007 249.611511,225.484833 249.015991,231.372620 
	C249.146545,237.996765 249.277100,244.620895 249.477127,252.143372 
	C249.615555,256.740021 249.753998,261.336700 249.255844,266.020660 
	C248.830612,266.018433 248.405365,266.016205 247.854935,265.159332 
	C244.071518,231.322433 239.233276,197.485184 247.965469,163.682663 
	C242.854095,161.670776 239.853653,163.688126 238.765945,168.643631 
	C236.740936,177.869400 233.547226,187.103104 233.293335,196.400513 
	C232.680573,218.838837 233.487244,241.315765 233.708054,263.777252 
	C233.744720,267.506012 233.713242,271.235474 233.713242,275.852203 
	C231.608368,274.326141 230.121216,273.363617 228.764389,272.243256 
	C224.014572,268.321228 219.437607,264.178314 214.557434,260.428467 
	C207.468140,254.981155 204.431213,255.015167 196.829895,259.740601 
	C200.190506,269.169556 203.438324,278.571411 206.913727,287.888336 
	C208.273743,291.534302 211.486725,291.176147 214.524231,290.518158 
	C217.786102,289.811615 217.508774,287.440491 216.879883,285.035126 
	C216.111282,282.095398 215.261887,279.176819 214.139664,275.142761 
	C221.184067,279.521759 227.308121,283.328674 233.814331,287.570923 
	C234.542450,287.727295 235.270554,287.883636 236.812881,288.396393 
	C241.311203,288.946198 245.885254,289.795441 249.832016,284.843109 
	C250.351486,284.841583 250.870972,284.840088 251.244659,285.699493 
	C251.443237,287.129669 251.641830,288.559814 251.661102,290.830414 
	C251.671127,292.549927 251.681137,294.269470 250.954880,296.239624 
	C248.639923,297.331543 246.324982,298.423431 243.391190,299.583130 
	C242.679657,299.989075 241.968109,300.395020 240.589417,300.866516 
	C227.062881,307.073273 213.536362,313.280060 199.389130,319.554291 
	C198.682281,319.972687 197.975433,320.391113 196.601288,320.876282 
	C188.737793,324.408020 180.874283,327.939789 172.390869,331.553955 
	C171.677231,331.970245 170.963608,332.386505 169.578430,332.851257 
	C163.749252,335.363708 157.920090,337.876190 152.090927,340.388641 
	C152.299164,341.066772 152.507401,341.744873 152.715637,342.423004 
	C161.282852,343.850677 169.080917,340.328217 177.519470,337.518158 
	C177.987442,337.277435 178.455414,337.036713 179.659531,336.776062 
	C187.436340,333.656311 195.213135,330.536560 203.578568,327.370728 
	C204.436798,326.932770 205.295013,326.494781 206.870804,325.991333 
	C212.576889,323.436432 218.282974,320.881531 224.596725,318.323792 
	C225.294708,317.936554 225.992691,317.549347 227.376785,317.113495 
	C235.685333,313.604187 243.993881,310.094910 252.469711,306.514954 
	C252.986877,308.464264 253.321854,309.726898 253.535690,311.650848 
	C253.750366,312.744781 253.965042,313.838715 254.095764,315.745850 
	C254.472153,318.187653 254.477264,320.770416 255.334763,323.029602 
	C256.111267,325.075348 257.817627,326.768188 259.526428,328.866364 
	C260.217438,327.960602 260.908447,327.054871 261.689240,325.308807 
	C261.488708,324.208496 261.288177,323.108215 261.251404,321.310455 
	C261.067627,319.912689 260.883881,318.514954 260.851562,316.218353 
	C260.632019,313.815521 260.412506,311.412689 260.394806,308.172882 
	C260.413513,306.450745 260.432220,304.728607 261.155548,302.731628 
	C265.100525,300.953125 269.045502,299.174622 273.610291,297.361084 
	C274.335419,296.984131 275.060577,296.607208 276.390228,296.214752 
	C276.923431,295.947510 277.456635,295.680267 278.605682,295.359100 
	C279.321716,294.975403 280.037720,294.591736 281.435913,294.153381 
	C286.326782,292.240570 291.217682,290.327759 296.466309,288.275024 
	C298.362885,298.884216 300.159515,308.934174 301.811066,319.466370 
	C301.983063,320.269226 302.155090,321.072052 302.275024,322.679901 
	C302.493622,323.450195 302.712219,324.220520 302.810852,325.574524 
	C303.001099,326.334564 303.191376,327.094604 303.277100,328.658386 
	C303.471619,329.435364 303.666168,330.212311 303.740723,331.577332 
	C303.935425,332.344360 304.130127,333.111420 304.247101,334.607422 
	C304.394073,335.067993 304.541046,335.528564 304.546692,336.647614 
	C304.776276,337.735443 305.005859,338.823242 305.155762,340.708588 
	C305.372620,341.468689 305.589508,342.228790 305.689453,343.489807 
	C305.836090,343.976471 305.982727,344.463165 306.020569,345.746552 
	C306.334503,347.837799 306.648438,349.929047 306.295258,351.919495 
	C304.829285,351.092010 303.363281,350.264526 301.821136,349.394012 
	C301.449799,354.838043 305.266724,356.612396 309.208344,358.215637 
	C311.894226,359.308167 314.637177,360.260437 317.354614,361.275421 
	C318.861237,356.453644 313.824402,356.425537 312.146576,353.501801 
	C312.092987,353.334625 312.039398,353.167480 312.229553,352.098053 
	C311.906036,348.068848 311.582489,344.039673 311.401459,339.354279 
	C311.204590,338.260254 311.007721,337.166199 310.918701,335.216675 
	C310.667969,333.814728 310.417236,332.412750 310.324097,330.421570 
	C310.181702,329.627869 310.039307,328.834198 309.993347,327.185333 
	C308.508545,314.489624 307.114563,301.782166 305.472412,289.106842 
	C305.081848,286.092072 305.750549,284.633057 308.768341,283.647308 
	C314.589905,281.745789 320.257385,279.372528 326.695129,277.190613 
	C329.394348,276.198029 332.093536,275.205414 335.516052,274.231445 
	C342.341095,272.170807 349.166168,270.110138 356.596741,268.155273 
	C357.352203,267.889404 358.107697,267.623535 359.403870,267.517120 
	C359.933685,267.350983 360.463501,267.184845 361.375061,267.159882 
	C361.877441,267.002289 362.379852,266.844696 363.818390,266.789581 
	C365.071198,266.820557 366.324036,266.851562 367.663300,267.500366 
	C367.849243,268.306213 368.035187,269.112030 368.056061,270.615112 
	C361.704010,275.408386 355.351990,280.201691 348.355560,285.002777 
	C347.570404,285.333801 346.785217,285.664856 345.357208,285.968872 
	C344.560730,286.264160 343.764282,286.559418 342.167297,286.754059 
	C336.877075,286.754059 331.586853,286.754059 325.653961,286.754059 
	C331.906189,289.383789 337.798065,289.963318 344.647400,288.796387 
	C345.100647,288.621246 345.553864,288.446106 346.565674,288.385529 
	C347.451599,288.127502 348.337524,287.869476 350.012848,287.565735 
	C354.452820,285.459381 358.892761,283.353027 363.692108,281.827484 
	C363.286041,283.099884 363.267792,285.053528 362.414032,285.539551 
	C353.693024,290.504578 344.836212,295.231049 335.535187,299.570831 
	C334.955902,298.990906 334.466492,298.257507 333.782196,297.856934 
	C330.303558,295.820343 327.315033,297.252716 324.882355,299.705200 
	C324.194855,300.398285 324.308624,303.286804 324.741974,303.461243 
	C327.338776,304.506287 330.109558,305.370850 332.880005,305.602539 
	C333.917114,305.689270 335.109985,303.913605 336.864441,303.084808 
	C340.391479,303.993500 339.668671,305.904846 337.741821,307.675659 
	C333.327118,311.732880 328.166077,313.805054 322.181793,312.003937 
	C317.664001,310.644165 315.094482,312.395142 314.941498,316.680115 
	C314.700256,323.436554 315.059723,330.222260 315.354095,336.987335 
	C315.563171,341.792053 316.083923,346.583221 316.465546,351.380432 
	C317.020081,351.347473 317.574585,351.314484 318.129089,351.281525 
	C317.524597,339.745361 316.920105,328.209198 316.282562,316.042084 
	C318.863159,316.545380 320.141785,316.712921 321.375031,317.047760 
	C335.781097,320.958984 342.227905,318.044037 349.117188,304.605804 
	C349.771240,303.330048 350.807831,302.121246 351.946075,301.243408 
	C360.562134,294.598358 369.816284,288.642761 377.663086,281.198517 
	C381.373688,277.678284 383.691193,271.527527 384.381226,266.272064 
	C385.296783,259.298798 378.861786,253.735474 370.904449,253.053055 
	C354.729706,251.665909 339.216034,254.623413 324.117676,260.361847 
	C322.276245,261.061737 320.045715,260.737915 317.922485,260.826324 
	C317.922485,260.826324 317.829987,260.793793 317.735626,260.571381 
	C317.735626,260.571381 317.367889,260.410431 316.661499,260.035950 
	C315.790405,258.536713 314.448883,257.127777 314.140381,255.520523 
	C313.358154,251.444839 312.949768,247.288834 312.550507,243.149673 
	C311.001648,227.090530 309.514679,211.025406 307.997406,194.475143 
	C307.997406,194.475143 307.989929,193.987778 307.974152,193.277435 
	C307.332153,191.875366 306.690155,190.473297 305.995544,188.997406 
	C305.995544,188.997406 305.935791,188.929245 305.683594,188.606293 
	C305.501587,188.400650 305.297455,188.220001 305.006409,187.993607 
	C305.006409,187.993607 304.935486,187.928986 304.683899,187.606583 
	C304.502289,187.401230 304.298523,187.220978 304.006317,186.993576 
	C304.006317,186.993576 303.933868,186.927505 303.683685,186.605774 
	C303.502869,186.400955 303.299652,186.221497 303.006317,185.993484 
M190.824020,349.003113 
	C190.824020,349.003113 190.884491,349.228424 190.884491,349.228424 
	C190.884491,349.228424 191.109360,349.079895 191.471115,348.793549 
	C191.702744,348.586487 191.900986,348.351257 192.873779,348.027649 
	C195.940598,348.362671 199.704193,344.654175 201.123749,349.675781 
	C194.036743,349.647156 192.863724,350.589722 191.516006,356.827332 
	C190.836563,356.484894 190.157120,356.142456 189.266998,355.693817 
	C188.715927,358.952026 188.851456,361.174042 193.220123,360.673431 
	C193.788376,362.490967 194.356644,364.308533 195.200302,365.685211 
	C195.357422,365.756256 195.514526,365.827301 195.414993,365.987732 
	C195.506958,365.973969 195.598923,365.960205 195.571976,366.493988 
	C195.349655,366.341583 195.127335,366.189178 195.384933,365.400848 
	C196.310425,366.589813 197.235916,367.778748 197.691650,369.193787 
	C197.712891,370.359863 197.245529,371.967682 197.835175,372.619934 
	C201.498840,376.672729 205.184753,380.756226 209.283646,384.350098 
	C213.177399,387.764099 217.672302,387.659454 221.124466,384.711060 
	C224.769211,381.598175 228.260513,378.303192 231.948517,375.244110 
	C234.773071,372.901184 235.669556,370.281921 234.132355,366.297668 
	C235.395447,364.187225 236.658524,362.076813 238.695358,359.897614 
	C243.248993,359.145050 242.618393,355.323364 241.481277,353.111328 
	C240.085464,350.396088 237.078964,348.508820 234.768753,346.263641 
	C234.517365,346.840454 234.265991,347.417297 233.198700,347.876862 
	C229.571304,347.885864 225.943909,347.894836 221.789749,347.372101 
	C217.610535,344.655243 215.451401,349.636444 211.523453,349.470612 
	C205.171234,346.626740 198.917252,342.522888 191.548019,348.216248 
	C191.309631,348.416168 191.101791,348.643982 190.824020,349.003113 
M340.147278,236.632019 
	C343.839447,236.894379 346.251404,236.102325 344.608490,231.072052 
	C346.675873,229.180878 348.743225,227.289688 350.884338,225.948380 
	C351.978119,226.072922 353.952118,226.490631 354.023987,226.274826 
	C354.519653,224.786560 355.372345,222.678848 354.719727,221.668869 
	C351.073242,216.025909 347.094849,210.590683 343.048676,205.221024 
	C342.521942,204.522049 340.951294,204.609665 339.261292,204.517761 
	C332.951477,210.317078 326.641693,216.116394 320.241486,221.998779 
	C325.407928,228.227829 330.141724,233.935272 334.982361,239.771500 
	C336.819122,238.375549 338.253082,237.285751 340.147278,236.632019 
M333.751770,375.885895 
	C337.471497,377.050995 341.191223,378.216125 344.910950,379.381226 
	C345.078339,378.829651 345.245728,378.278046 345.413086,377.726471 
	C343.592804,377.166046 341.718781,376.737762 339.961243,376.023010 
	C331.019653,372.386597 328.539124,365.843018 332.813873,357.206360 
	C333.695496,355.425110 334.888275,353.797485 335.764618,352.014099 
	C336.578125,350.358398 337.160583,348.589172 337.844757,346.869934 
	C328.583954,356.136658 325.803375,367.204010 333.751770,375.885895 
M188.683533,296.935791 
	C191.381989,297.627075 198.642822,293.551605 198.587372,291.088379 
	C198.564804,290.085938 197.200012,288.511475 196.169907,288.238373 
	C191.754684,287.067810 188.777191,290.333252 188.683533,296.935791 
M238.273041,158.073776 
	C237.281235,158.644363 236.289413,159.214951 235.297592,159.785538 
	C242.673050,160.374847 249.813965,158.596024 255.743988,164.088715 
	C256.132172,161.499039 255.356842,159.335922 251.933731,159.003098 
	C247.658768,158.587448 243.367859,158.335739 238.273041,158.073776 
M385.406799,357.437744 
	C386.084656,362.817535 386.762512,368.197327 387.407257,373.314270 
	C390.706635,367.360962 389.495331,357.988922 384.176147,352.525238 
	C384.585449,354.240906 384.882690,355.486786 385.406799,357.437744 
M191.157272,301.507782 
	C183.976547,300.645111 184.958450,294.934479 184.090012,289.966766 
	C183.412506,293.671967 182.900848,297.657501 184.557922,300.264587 
	C187.345825,304.650848 192.399170,302.868103 196.732285,302.242889 
	C195.127945,302.055664 193.523621,301.868439 191.157272,301.507782 
M299.565857,343.111725 
	C299.973633,343.669891 300.381409,344.228058 300.789185,344.786224 
	C301.090393,344.662781 301.391602,344.539307 301.692841,344.415863 
	C300.821991,340.000092 299.951141,335.584351 299.080292,331.168579 
	C298.631989,331.247620 298.183685,331.326660 297.735382,331.405731 
	C298.266846,335.089172 298.798279,338.772644 299.565857,343.111725 
M372.895691,396.703613 
	C373.064178,396.452148 373.261108,396.213654 373.385010,395.941864 
	C373.425781,395.852356 373.278198,395.557861 373.215759,395.557556 
	C369.326569,395.538666 365.437286,395.540527 361.548004,395.540527 
	C361.551300,395.986694 361.554565,396.432861 361.557861,396.879028 
	C365.118652,396.879028 368.679413,396.879028 372.895691,396.703613 
M355.189728,375.375549 
	C356.122467,376.395874 357.055206,377.416199 358.218567,378.688751 
	C357.626312,373.921021 357.626312,373.921021 355.189728,375.375549 
M239.478882,363.650299 
	C239.746490,363.645294 240.014084,363.640289 240.281708,363.635284 
	C240.226059,363.366119 240.170425,363.096985 240.114777,362.827820 
	C239.887238,362.998901 239.659683,363.169983 239.478882,363.650299 
M252.983032,168.850784 
	C252.983032,168.850784 253.038330,169.188690 253.038330,169.188690 
	C253.038330,169.188690 253.121948,168.861221 252.983032,168.850784 
M350.509399,377.375397 
	C350.509399,377.375397 350.406311,377.544067 350.406311,377.544067 
	C350.406311,377.544067 350.609985,377.524719 350.509399,377.375397 
M352.514008,376.403351 
	C352.514008,376.403351 352.588440,376.523071 352.514008,376.403351 
M237.447922,366.490997 
	C237.447922,366.490997 237.518311,366.456268 237.447922,366.490997 
M274.465820,278.500763 
	C274.465820,278.500763 274.518677,278.479614 274.465820,278.500763 
M189.541412,351.505829 
	C189.541412,351.505829 189.483078,351.532013 189.541412,351.505829 
M190.507187,283.522125 
	C190.507187,283.522125 190.502182,283.493805 190.507187,283.522125 
M383.442749,349.502563 
	C383.442749,349.502563 383.516388,349.466400 383.442749,349.502563 
z"/>
<path fill="#F00000" opacity="1.000000" stroke="none" 
	d="
M272.990479,297.396118 
	C269.045502,299.174622 265.100525,300.953125 260.582855,303.076721 
	C260.071106,305.284485 260.132050,307.147186 260.192993,309.009857 
	C260.412506,311.412689 260.632019,313.815521 260.657654,316.940887 
	C260.671753,319.111572 260.879700,320.559753 261.087646,322.007904 
	C261.288177,323.108215 261.488708,324.208496 261.484131,325.922241 
	C260.557343,327.229279 259.835663,327.922943 259.114014,328.616608 
	C257.817627,326.768188 256.111267,325.075348 255.334763,323.029602 
	C254.477264,320.770416 254.472153,318.187653 254.264496,315.088013 
	C254.174423,313.283295 253.915634,312.136414 253.656830,310.989502 
	C253.321854,309.726898 252.986877,308.464264 252.469711,306.514954 
	C243.993881,310.094910 235.685333,313.604187 226.729218,317.171814 
	C225.384109,317.595612 224.686584,317.961121 223.989059,318.326630 
	C218.282974,320.881531 212.576889,323.436432 206.210724,326.041870 
	C204.697067,326.533875 203.843506,326.975342 202.989944,327.416809 
	C195.213135,330.536560 187.436340,333.656311 179.107651,336.716064 
	C178.033585,336.942413 177.511398,337.228790 176.989227,337.515198 
	C169.080917,340.328217 161.282852,343.850677 152.715637,342.423004 
	C152.507401,341.744873 152.299164,341.066772 152.090927,340.388641 
	C157.920090,337.876190 163.749252,335.363708 170.233429,332.788269 
	C171.595871,332.307343 172.303314,331.889435 173.010773,331.471558 
	C180.874283,327.939789 188.737793,324.408020 197.251312,320.803833 
	C198.604172,320.316528 199.307007,319.901672 200.009827,319.486816 
	C213.536362,313.280060 227.062881,307.073273 241.239227,300.798096 
	C242.596039,300.324890 243.303024,299.920105 244.010010,299.515320 
	C246.324982,298.423431 248.639923,297.331543 251.525940,295.896790 
	C252.011490,293.699310 251.925949,291.844635 251.840424,289.989990 
	C251.641830,288.559814 251.443237,287.129669 251.428741,284.946381 
	C251.612823,282.583496 251.612823,280.973724 251.612823,279.363953 
	C251.097794,279.343567 250.582779,279.323212 250.067749,279.302856 
	C249.746689,281.297852 249.425613,283.292847 249.104553,285.287842 
	C245.885254,289.795441 241.311203,288.946198 236.180634,288.059143 
	C234.842987,287.526428 234.137589,287.330994 233.432175,287.135559 
	C227.308121,283.328674 221.184067,279.521759 214.139664,275.142761 
	C215.261887,279.176819 216.111282,282.095398 216.879883,285.035126 
	C217.508774,287.440491 217.786102,289.811615 214.524231,290.518158 
	C211.486725,291.176147 208.273743,291.534302 206.913727,287.888336 
	C203.438324,278.571411 200.190506,269.169556 196.829895,259.740601 
	C204.431213,255.015167 207.468140,254.981155 214.557434,260.428467 
	C219.437607,264.178314 224.014572,268.321228 228.764389,272.243256 
	C230.121216,273.363617 231.608368,274.326141 233.713242,275.852203 
	C233.713242,271.235474 233.744720,267.506012 233.708054,263.777252 
	C233.487244,241.315765 232.680573,218.838837 233.293335,196.400513 
	C233.547226,187.103104 236.740936,177.869400 238.765945,168.643631 
	C239.853653,163.688126 242.854095,161.670776 247.965469,163.682663 
	C239.233276,197.485184 244.071518,231.322433 247.853989,266.007874 
	C247.974167,269.331482 248.095291,271.806549 248.245529,274.530640 
	C248.845367,274.840149 249.416107,274.900604 250.019897,274.510986 
	C249.999451,271.351715 249.945938,268.642517 249.892426,265.933350 
	C249.753998,261.336700 249.615555,256.740021 249.578278,251.226868 
	C249.590149,243.793472 249.500885,237.276566 249.411621,230.759674 
	C249.611511,225.484833 249.811401,220.210007 250.185303,214.141327 
	C250.341049,212.144760 250.322784,210.942032 250.304504,209.739304 
	C250.538208,208.616577 250.503937,207.324051 251.078522,206.417328 
	C251.694046,205.445984 252.895767,204.224747 253.817596,204.244339 
	C254.732010,204.263794 256.178650,205.557907 256.410797,206.527817 
	C257.168640,209.693878 257.478821,212.967102 257.770996,216.902069 
	C257.808380,219.073273 258.035950,220.541519 258.263489,222.009766 
	C258.498505,225.723526 258.733490,229.437302 258.739197,233.985229 
	C258.787445,239.549362 259.064911,244.279327 259.342407,249.009293 
	C259.525238,262.730957 259.708069,276.452637 259.754578,290.814514 
	C260.321228,291.605316 261.024139,291.755890 261.727081,291.906464 
	C269.026001,288.904877 276.324951,285.903290 284.251648,282.655792 
	C285.918915,281.930267 286.958435,281.450684 288.376617,280.956909 
	C294.353180,280.267578 295.777496,276.907776 294.662598,271.489380 
	C294.412781,269.736908 294.092224,268.364197 293.600403,266.741028 
	C293.315399,266.323364 293.201630,266.156158 293.147583,265.545654 
	C292.781982,241.349716 292.356628,217.597061 292.303833,193.917297 
	C293.597015,195.460815 295.093933,196.839615 295.345337,198.416931 
	C297.070984,209.243896 298.535797,220.112442 299.970520,231.131927 
	C300.006683,231.868164 300.156891,232.440094 300.471741,233.436340 
	C301.921417,247.492615 303.206482,261.124573 304.466522,274.491089 
	C323.286865,269.588165 341.654724,264.803131 360.481842,260.063232 
	C365.188263,260.370056 369.451202,260.485321 373.677490,260.940582 
	C376.939270,261.291962 377.539948,263.124298 376.343536,266.188965 
	C373.764832,272.794525 369.041412,277.414642 363.332703,281.246704 
	C358.892761,283.353027 354.452820,285.459381 349.575989,287.152954 
	C349.092712,286.158417 349.046326,285.576691 348.999939,284.994965 
	C355.351990,280.201691 361.704010,275.408386 368.245056,270.040710 
	C368.148285,268.605042 367.862579,267.743805 367.576843,266.882568 
	C366.324036,266.851562 365.071198,266.820557 363.155457,266.677185 
	C361.992798,266.716095 361.493042,266.867401 360.993317,267.018707 
	C360.463501,267.184845 359.933685,267.350983 358.824158,267.414520 
	C357.493378,267.557770 356.742279,267.803619 355.991211,268.049500 
	C349.166168,270.110138 342.341095,272.170807 334.741577,274.249329 
	C331.307678,275.243073 328.648224,276.218964 325.988770,277.194824 
	C320.257385,279.372528 314.589905,281.745789 308.768341,283.647308 
	C305.750549,284.633057 305.081848,286.092072 305.472412,289.106842 
	C307.114563,301.782166 308.508545,314.489624 309.821655,327.820129 
	C309.822174,329.306854 309.994324,330.158844 310.166504,331.010803 
	C310.417236,332.412750 310.667969,333.814728 310.738647,335.892700 
	C310.792053,337.715973 311.025482,338.863220 311.258942,340.010468 
	C311.582489,344.039673 311.906036,348.068848 311.690491,352.597351 
	C310.873810,353.133240 310.596222,353.169830 310.020447,353.180847 
	C308.802307,352.776917 307.882324,352.398621 306.962341,352.020294 
	C306.648438,349.929047 306.334503,347.837799 306.165588,345.183472 
	C306.142548,344.076569 305.974457,343.532745 305.806366,342.988892 
	C305.589508,342.228790 305.372620,341.468689 305.315369,340.058685 
	C305.212646,338.268890 304.950317,337.129028 304.687988,335.989136 
	C304.541046,335.528564 304.394073,335.067993 304.382385,334.031830 
	C304.298706,332.633911 304.079712,331.811615 303.860687,330.989288 
	C303.666168,330.212311 303.471619,329.435364 303.419128,328.047333 
	C303.351044,326.621124 303.140930,325.806000 302.930847,324.990845 
	C302.712219,324.220520 302.493622,323.450195 302.393402,322.035034 
	C302.326569,320.588135 302.141357,319.786133 301.956146,318.984131 
	C300.159515,308.934174 298.362885,298.884216 296.466309,288.275024 
	C291.217682,290.327759 286.326782,292.240570 280.780884,294.210693 
	C279.413849,294.649689 278.701843,295.031342 277.989838,295.413025 
	C277.456635,295.680267 276.923431,295.947510 275.770996,296.245422 
	C274.431305,296.649445 273.710907,297.022766 272.990479,297.396118 
z"/>
<path fill="#090A0A" opacity="1.000000" stroke="none" 
	d="
M363.512390,281.537079 
	C369.041412,277.414642 373.764832,272.794525 376.343536,266.188965 
	C377.539948,263.124298 376.939270,261.291962 373.677490,260.940582 
	C369.451202,260.485321 365.188263,260.370056 360.276550,259.763123 
	C355.612946,259.274536 351.523743,258.531006 347.634033,259.115295 
	C340.015472,260.259766 332.529694,262.260254 324.945282,263.671600 
	C321.407104,264.329987 317.721558,264.919800 314.193695,264.584503 
	C312.587891,264.431885 311.145203,262.007477 309.830597,260.443695 
	C309.729858,260.323853 311.239288,258.850372 312.047852,258.363892 
	C313.224518,261.724640 314.301910,264.868469 317.995514,260.888489 
	C320.045715,260.737915 322.276245,261.061737 324.117676,260.361847 
	C339.216034,254.623413 354.729706,251.665909 370.904449,253.053055 
	C378.861786,253.735474 385.296783,259.298798 384.381226,266.272064 
	C383.691193,271.527527 381.373688,277.678284 377.663086,281.198517 
	C369.816284,288.642761 360.562134,294.598358 351.946075,301.243408 
	C350.807831,302.121246 349.771240,303.330048 349.117188,304.605804 
	C342.227905,318.044037 335.781097,320.958984 321.375031,317.047760 
	C320.141785,316.712921 318.863159,316.545380 316.282562,316.042084 
	C316.920105,328.209198 317.524597,339.745361 318.129089,351.281525 
	C317.574585,351.314484 317.020081,351.347473 316.465546,351.380432 
	C316.083923,346.583221 315.563171,341.792053 315.354095,336.987335 
	C315.059723,330.222260 314.700256,323.436554 314.941498,316.680115 
	C315.094482,312.395142 317.664001,310.644165 322.181793,312.003937 
	C328.166077,313.805054 333.327118,311.732880 337.741821,307.675659 
	C339.668671,305.904846 340.391479,303.993500 336.487122,302.669006 
	C336.079010,301.510193 336.048187,300.767212 336.017395,300.024231 
	C344.836212,295.231049 353.693024,290.504578 362.414032,285.539551 
	C363.267792,285.053528 363.286041,283.099884 363.512390,281.537079 
z"/>
<path fill="#F30000" opacity="1.000000" stroke="none" 
	d="
M194.924896,366.126068 
	C194.356644,364.308533 193.788376,362.490967 193.041199,360.023987 
	C192.572006,358.587646 192.281723,357.800812 191.991440,357.013947 
	C192.863724,350.589722 194.036743,349.647156 201.886505,349.812164 
	C204.763596,350.613373 206.877899,351.278198 209.260223,352.163116 
	C211.265701,353.032593 213.052597,355.446777 214.976807,352.115906 
	C217.619934,350.629944 219.968231,349.266907 222.316528,347.903870 
	C225.943909,347.894836 229.571304,347.885864 233.833862,348.196594 
	C238.563965,351.445282 238.717194,355.562775 237.921616,359.966370 
	C236.658524,362.076813 235.395447,364.187225 233.753021,366.787903 
	C227.543091,373.286652 221.712494,379.295166 215.644180,385.548645 
	C209.226517,379.462036 203.693954,374.214874 198.161407,368.967712 
	C197.235916,367.778748 196.310425,366.589813 195.160706,365.738647 
	C194.936478,366.076477 194.924896,366.126068 194.924896,366.126068 
z"/>
<path fill="#080001" opacity="1.000000" stroke="none" 
	d="
M312.000244,258.006104 
	C311.239288,258.850372 309.729858,260.323853 309.830597,260.443695 
	C311.145203,262.007477 312.587891,264.431885 314.193695,264.584503 
	C317.721558,264.919800 321.407104,264.329987 324.945282,263.671600 
	C332.529694,262.260254 340.015472,260.259766 347.634033,259.115295 
	C351.523743,258.531006 355.612946,259.274536 359.817261,259.717987 
	C341.654724,264.803131 323.286865,269.588165 304.466522,274.491089 
	C303.206482,261.124573 301.921417,247.492615 300.560303,233.180893 
	C300.351044,231.989944 300.217804,231.478775 300.084564,230.967590 
	C298.535797,220.112442 297.070984,209.243896 295.345337,198.416931 
	C295.093933,196.839615 293.597015,195.460815 292.175018,193.573029 
	C289.414795,187.998199 293.566101,185.324722 296.002258,181.986542 
	C296.820312,181.935196 297.638397,181.883835 298.853943,182.091675 
	C299.462830,182.559509 299.688599,182.751190 299.928741,182.925919 
	C299.928741,182.925919 300.005402,182.994171 300.168762,183.188049 
	C300.514099,183.582809 300.713959,183.763947 300.931671,183.925339 
	C300.931671,183.925339 301.006531,183.993576 301.169159,184.187531 
	C301.513947,184.582504 301.713959,184.763855 301.931824,184.925507 
	C301.931824,184.925507 302.006592,184.993729 302.169189,185.187775 
	C302.513977,185.582977 302.714142,185.764359 302.932281,185.925919 
	C302.932281,185.925919 303.006317,185.993484 303.169189,186.187469 
	C303.514923,186.582977 303.715546,186.764999 303.933868,186.927505 
	C303.933868,186.927505 304.006317,186.993576 304.169128,187.187073 
	C304.515594,187.582672 304.716797,187.765472 304.935486,187.928986 
	C304.935486,187.928986 305.006409,187.993607 305.168854,188.186554 
	C305.515350,188.581909 305.716827,188.765167 305.935791,188.929245 
	C305.935791,188.929245 305.995544,188.997406 306.012634,189.399323 
	C306.683136,191.196747 307.336548,192.592270 307.989929,193.987778 
	C307.989929,193.987778 307.997406,194.475143 307.819366,195.043686 
	C306.020874,200.728531 302.942017,205.818817 307.439636,211.037979 
	C307.704041,211.344757 307.607727,211.995453 307.613525,212.486877 
	C307.680695,218.196167 307.281738,223.954819 307.894684,229.604004 
	C308.925873,239.107986 310.597839,248.542419 312.000244,258.006104 
z"/>
<path fill="#0A0607" opacity="1.000000" stroke="none" 
	d="
M295.639160,182.031860 
	C293.566101,185.324722 289.414795,187.998199 291.802429,193.500153 
	C292.356628,217.597061 292.781982,241.349716 292.776031,265.600311 
	C290.945831,268.086792 288.891815,269.903290 288.313110,272.107178 
	C287.580505,274.897064 288.048035,278.002014 287.997986,280.971100 
	C286.958435,281.450684 285.918915,281.930267 284.540070,282.476959 
	C283.922241,279.212158 282.774658,276.758728 278.160431,277.437500 
	C283.976440,275.719452 284.215607,271.743683 284.054077,267.308899 
	C283.854645,261.832520 284.018158,256.342957 284.210297,250.025970 
	C284.590546,247.397079 284.944580,245.602127 284.954041,243.805344 
	C285.011353,232.888840 284.990143,221.971909 284.995148,211.055130 
	C284.997772,206.229355 284.994415,201.403580 285.004303,196.577820 
	C285.023926,186.979065 286.157898,185.382675 295.639160,182.031860 
z"/>
<path fill="#F00000" opacity="1.000000" stroke="none" 
	d="
M350.810577,225.398499 
	C348.743225,227.289688 346.675873,229.180878 344.156952,231.493912 
	C342.365967,233.342499 341.026489,234.769241 339.687042,236.195953 
	C338.253082,237.285751 336.819122,238.375549 334.982361,239.771500 
	C330.141724,233.935272 325.407928,228.227829 320.241486,221.998779 
	C326.641693,216.116394 332.951477,210.317078 339.654022,204.747757 
	C343.525940,210.346329 347.101044,215.657059 350.403931,221.132004 
	C351.069153,222.234634 350.701843,223.960159 350.810577,225.398499 
z"/>
<path fill="#0A0607" opacity="1.000000" stroke="none" 
	d="
M312.047821,258.363892 
	C310.597839,248.542419 308.925873,239.107986 307.894684,229.604004 
	C307.281738,223.954819 307.680695,218.196167 307.613525,212.486877 
	C307.607727,211.995453 307.704041,211.344757 307.439636,211.037979 
	C302.942017,205.818817 306.020874,200.728531 307.822998,195.287369 
	C309.514679,211.025406 311.001648,227.090530 312.550507,243.149673 
	C312.949768,247.288834 313.358154,251.444839 314.140381,255.520523 
	C314.448883,257.127777 315.790405,258.536713 317.052429,260.301208 
	C317.443329,260.566498 317.829987,260.793793 317.829987,260.793793 
	C317.829987,260.793793 317.922485,260.826324 317.958984,260.857422 
	C314.301910,264.868469 313.224518,261.724640 312.047821,258.363892 
z"/>
<path fill="#180909" opacity="1.000000" stroke="none" 
	d="
M197.926529,369.080750 
	C203.693954,374.214874 209.226517,379.462036 215.644180,385.548645 
	C221.712494,379.295166 227.543091,373.286652 233.659866,367.107666 
	C235.669556,370.281921 234.773071,372.901184 231.948517,375.244110 
	C228.260513,378.303192 224.769211,381.598175 221.124466,384.711060 
	C217.672302,387.659454 213.177399,387.764099 209.283646,384.350098 
	C205.184753,380.756226 201.498840,376.672729 197.835175,372.619934 
	C197.245529,371.967682 197.712891,370.359863 197.926529,369.080750 
M214.526855,385.508972 
	C214.526855,385.508972 214.485245,385.519806 214.526855,385.508972 
z"/>
<path fill="#161A1A" opacity="1.000000" stroke="none" 
	d="
M333.447937,375.662048 
	C325.803375,367.204010 328.583954,356.136658 337.844757,346.869934 
	C337.160583,348.589172 336.578125,350.358398 335.764618,352.014099 
	C334.888275,353.797485 333.695496,355.425110 332.813873,357.206360 
	C328.539124,365.843018 331.019653,372.386597 339.961243,376.023010 
	C341.718781,376.737762 343.592804,377.166046 345.413086,377.726471 
	C345.245728,378.278046 345.078339,378.829651 344.910950,379.381226 
	C341.191223,378.216125 337.471497,377.050995 333.447937,375.662048 
z"/>
<path fill="#E10000" opacity="1.000000" stroke="none" 
	d="
M335.776306,299.797546 
	C336.048187,300.767212 336.079010,301.510193 336.170837,302.620117 
	C335.109985,303.913605 333.917114,305.689270 332.880005,305.602539 
	C330.109558,305.370850 327.338776,304.506287 324.741974,303.461243 
	C324.308624,303.286804 324.194855,300.398285 324.882355,299.705200 
	C327.315033,297.252716 330.303558,295.820343 333.782196,297.856934 
	C334.466492,298.257507 334.955902,298.990906 335.776306,299.797546 
z"/>
<path fill="#180909" opacity="1.000000" stroke="none" 
	d="
M350.847473,225.673431 
	C350.701843,223.960159 351.069153,222.234634 350.403931,221.132004 
	C347.101044,215.657059 343.525940,210.346329 339.955475,204.655350 
	C340.951294,204.609665 342.521942,204.522049 343.048676,205.221024 
	C347.094849,210.590683 351.073242,216.025909 354.719727,221.668869 
	C355.372345,222.678848 354.519653,224.786560 354.023987,226.274826 
	C353.952118,226.490631 351.978119,226.072922 350.847473,225.673431 
z"/>
<path fill="#E10000" opacity="1.000000" stroke="none" 
	d="
M188.533020,296.686829 
	C188.777191,290.333252 191.754684,287.067810 196.169907,288.238373 
	C197.200012,288.511475 198.564804,290.085938 198.587372,291.088379 
	C198.642822,293.551605 191.381989,297.627075 188.533020,296.686829 
z"/>
<path fill="#180909" opacity="1.000000" stroke="none" 
	d="
M306.628815,351.969910 
	C307.882324,352.398621 308.802307,352.776917 310.258972,353.402832 
	C311.209473,353.772583 311.623260,353.894714 312.037079,354.016876 
	C313.824402,356.425537 318.861237,356.453644 317.354614,361.275421 
	C314.637177,360.260437 311.894226,359.308167 309.208344,358.215637 
	C305.266724,356.612396 301.449799,354.838043 301.821136,349.394012 
	C303.363281,350.264526 304.829285,351.092010 306.628815,351.969910 
z"/>
<path fill="#ED0000" opacity="1.000000" stroke="none" 
	d="
M343.911835,288.744415 
	C337.798065,289.963318 331.906189,289.383789 325.653961,286.754059 
	C331.586853,286.754059 336.877075,286.754059 342.673584,287.046478 
	C343.423859,287.807404 343.667847,288.275909 343.911835,288.744415 
z"/>
<path fill="#180909" opacity="1.000000" stroke="none" 
	d="
M238.308487,359.932007 
	C238.717194,355.562775 238.563965,351.445282 234.241821,348.255249 
	C234.265991,347.417297 234.517365,346.840454 234.768753,346.263641 
	C237.078964,348.508820 240.085464,350.396088 241.481277,353.111328 
	C242.618393,355.323364 243.248993,359.145050 238.308487,359.932007 
z"/>
<path fill="#161A1A" opacity="1.000000" stroke="none" 
	d="
M238.678436,158.043518 
	C243.367859,158.335739 247.658768,158.587448 251.933731,159.003098 
	C255.356842,159.335922 256.132172,161.499039 255.743988,164.088715 
	C249.813965,158.596024 242.673050,160.374847 235.297592,159.785538 
	C236.289413,159.214951 237.281235,158.644363 238.678436,158.043518 
z"/>
<path fill="#161A1A" opacity="1.000000" stroke="none" 
	d="
M385.293335,357.085205 
	C384.882690,355.486786 384.585449,354.240906 384.176147,352.525238 
	C389.495331,357.988922 390.706635,367.360962 387.407257,373.314270 
	C386.762512,368.197327 386.084656,362.817535 385.293335,357.085205 
z"/>
<path fill="#180909" opacity="1.000000" stroke="none" 
	d="
M208.992218,351.943024 
	C206.877899,351.278198 204.763596,350.613373 202.313202,349.772430 
	C199.704193,344.654175 195.940598,348.362671 192.434738,348.018860 
	C191.995697,348.010040 191.920837,347.942444 191.920837,347.942444 
	C198.917252,342.522888 205.171234,346.626740 211.767731,349.732544 
	C212.012009,349.994476 211.964584,350.062012 211.654541,350.103577 
	C210.560394,350.744415 209.776306,351.343719 208.992218,351.943024 
z"/>
<path fill="#161A1A" opacity="1.000000" stroke="none" 
	d="
M191.538269,301.594482 
	C193.523621,301.868439 195.127945,302.055664 196.732285,302.242889 
	C192.399170,302.868103 187.345825,304.650848 184.557922,300.264587 
	C182.900848,297.657501 183.412506,293.671967 184.090012,289.966766 
	C184.958450,294.934479 183.976547,300.645111 191.538269,301.594482 
z"/>
<path fill="#610101" opacity="1.000000" stroke="none" 
	d="
M249.213806,231.066147 
	C249.500885,237.276566 249.590149,243.793472 249.543533,250.777710 
	C249.277100,244.620895 249.146545,237.996765 249.213806,231.066147 
z"/>
<path fill="#161A1A" opacity="1.000000" stroke="none" 
	d="
M284.791931,211.409149 
	C284.990143,221.971909 285.011353,232.888840 284.954041,243.805344 
	C284.944580,245.602127 284.590546,247.397079 284.214722,249.551727 
	C284.019043,238.989594 283.977051,228.068481 284.016846,217.147690 
	C284.023376,215.352173 284.389038,213.557983 284.791931,211.409149 
z"/>
<path fill="#180909" opacity="1.000000" stroke="none" 
	d="
M222.053131,347.638000 
	C219.968231,349.266907 217.619934,350.629944 214.670685,351.942322 
	C213.368027,351.281799 212.666306,350.671906 211.964569,350.062012 
	C211.964584,350.062012 212.012009,349.994476 212.036438,349.959778 
	C215.451401,349.636444 217.610535,344.655243 222.053131,347.638000 
z"/>
<path fill="#180909" opacity="1.000000" stroke="none" 
	d="
M299.447784,342.783936 
	C298.798279,338.772644 298.266846,335.089172 297.735382,331.405731 
	C298.183685,331.326660 298.631989,331.247620 299.080292,331.168579 
	C299.951141,335.584351 300.821991,340.000092 301.692841,344.415863 
	C301.391602,344.539307 301.090393,344.662781 300.789185,344.786224 
	C300.381409,344.228058 299.973633,343.669891 299.447784,342.783936 
z"/>
<path fill="#161A1A" opacity="1.000000" stroke="none" 
	d="
M372.567932,396.791321 
	C368.679413,396.879028 365.118652,396.879028 361.557861,396.879028 
	C361.554565,396.432861 361.551300,395.986694 361.548004,395.540527 
	C365.437286,395.540527 369.326569,395.538666 373.215759,395.557556 
	C373.278198,395.557861 373.425781,395.852356 373.385010,395.941864 
	C373.261108,396.213654 373.064178,396.452148 372.567932,396.791321 
z"/>
<path fill="#ED0000" opacity="1.000000" stroke="none" 
	d="
M259.458496,248.558655 
	C259.064911,244.279327 258.787445,239.549362 258.660645,234.446198 
	C259.065765,238.751328 259.320190,243.429688 259.458496,248.558655 
z"/>
<path fill="#180909" opacity="1.000000" stroke="none" 
	d="
M339.917175,236.414001 
	C341.026489,234.769241 342.365967,233.342499 343.971680,231.790573 
	C346.251404,236.102325 343.839447,236.894379 339.917175,236.414001 
z"/>
<path fill="#610101" opacity="1.000000" stroke="none" 
	d="
M248.216415,274.281616 
	C248.095291,271.806549 247.974167,269.331482 247.916595,266.435181 
	C248.405365,266.016205 248.830612,266.018433 249.574127,265.976990 
	C249.945938,268.642517 249.999451,271.351715 249.700974,274.475220 
	C248.971451,274.686920 248.593933,274.484283 248.216415,274.281616 
z"/>
<path fill="#ED0000" opacity="1.000000" stroke="none" 
	d="
M249.468292,285.065491 
	C249.425613,283.292847 249.746689,281.297852 250.067749,279.302856 
	C250.582779,279.323212 251.097794,279.343567 251.612823,279.363953 
	C251.612823,280.973724 251.612823,282.583496 251.501633,284.515930 
	C250.870972,284.840088 250.351486,284.841583 249.468292,285.065491 
z"/>
<path fill="#161A1A" opacity="1.000000" stroke="none" 
	d="
M355.096008,375.167236 
	C357.626312,373.921021 357.626312,373.921021 358.218567,378.688751 
	C357.055206,377.416199 356.122467,376.395874 355.096008,375.167236 
z"/>
<path fill="#180909" opacity="1.000000" stroke="none" 
	d="
M191.753723,356.920654 
	C192.281723,357.800812 192.572006,358.587646 192.851074,359.690247 
	C188.851456,361.174042 188.715927,358.952026 189.266998,355.693817 
	C190.157120,356.142456 190.836563,356.484894 191.753723,356.920654 
z"/>
<path fill="#ED0000" opacity="1.000000" stroke="none" 
	d="
M326.341949,277.192719 
	C328.648224,276.218964 331.307678,275.243073 334.379944,274.239990 
	C332.093536,275.205414 329.394348,276.198029 326.341949,277.192719 
z"/>
<path fill="#ED0000" opacity="1.000000" stroke="none" 
	d="
M251.750763,290.410217 
	C251.925949,291.844635 252.011490,293.699310 251.894089,295.771484 
	C251.681137,294.269470 251.671127,292.549927 251.750763,290.410217 
z"/>
<path fill="#ED0000" opacity="1.000000" stroke="none" 
	d="
M260.293884,308.591370 
	C260.132050,307.147186 260.071106,305.284485 260.230560,303.214142 
	C260.432220,304.728607 260.413513,306.450745 260.293884,308.591370 
z"/>
<path fill="#ED0000" opacity="1.000000" stroke="none" 
	d="
M348.677734,284.998871 
	C349.046326,285.576691 349.092712,286.158417 349.181274,287.175812 
	C348.337524,287.869476 347.451599,288.127502 346.283691,288.044189 
	C346.001129,287.133881 346.000580,286.564880 346.000061,285.995880 
	C346.785217,285.664856 347.570404,285.333801 348.677734,284.998871 
z"/>
<path fill="#ED0000" opacity="1.000000" stroke="none" 
	d="
M258.342896,221.657776 
	C258.035950,220.541519 257.808380,219.073273 257.719513,217.329681 
	C258.046234,218.471481 258.234253,219.888626 258.342896,221.657776 
z"/>
<path fill="#ED0000" opacity="1.000000" stroke="none" 
	d="
M259.320221,328.741486 
	C259.835663,327.922943 260.557343,327.229279 261.439209,326.342407 
	C260.908447,327.054871 260.217438,327.960602 259.320221,328.741486 
z"/>
<path fill="#ED0000" opacity="1.000000" stroke="none" 
	d="
M261.169556,321.659180 
	C260.879700,320.559753 260.671753,319.111572 260.581940,317.390320 
	C260.883881,318.514954 261.067627,319.912689 261.169556,321.659180 
z"/>
<path fill="#0A0607" opacity="1.000000" stroke="none" 
	d="
M307.982056,193.632599 
	C307.336548,192.592270 306.683136,191.196747 306.038940,189.436218 
	C306.690155,190.473297 307.332153,191.875366 307.982056,193.632599 
z"/>
<path fill="#ED0000" opacity="1.000000" stroke="none" 
	d="
M253.596252,311.320190 
	C253.915634,312.136414 254.174423,313.283295 254.306458,314.681427 
	C253.965042,313.838715 253.750366,312.744781 253.596252,311.320190 
z"/>
<path fill="#610101" opacity="1.000000" stroke="none" 
	d="
M250.124725,209.955780 
	C250.322784,210.942032 250.341049,212.144760 250.195801,213.674103 
	C250.003159,212.724579 249.974060,211.448425 250.124725,209.955780 
z"/>
<path fill="#ED0000" opacity="1.000000" stroke="none" 
	d="
M304.617340,336.318359 
	C304.950317,337.129028 305.212646,338.268890 305.355225,339.659912 
	C305.005859,338.823242 304.776276,337.735443 304.617340,336.318359 
z"/>
<path fill="#ED0000" opacity="1.000000" stroke="none" 
	d="
M311.330200,339.682373 
	C311.025482,338.863220 310.792053,337.715973 310.684753,336.320435 
	C311.007721,337.166199 311.204590,338.260254 311.330200,339.682373 
z"/>
<path fill="#F00000" opacity="1.000000" stroke="none" 
	d="
M345.678650,285.982361 
	C346.000580,286.564880 346.001129,287.133881 346.004395,287.986938 
	C345.553864,288.446106 345.100647,288.621246 344.279602,288.770386 
	C343.667847,288.275909 343.423859,287.807404 343.073853,287.096802 
	C343.764282,286.559418 344.560730,286.264160 345.678650,285.982361 
z"/>
<path fill="#ED0000" opacity="1.000000" stroke="none" 
	d="
M303.800720,331.283325 
	C304.079712,331.811615 304.298706,332.633911 304.421265,333.667358 
	C304.130127,333.111420 303.935425,332.344360 303.800720,331.283325 
z"/>
<path fill="#ED0000" opacity="1.000000" stroke="none" 
	d="
M301.883606,319.225250 
	C302.141357,319.786133 302.326569,320.588135 302.419434,321.632507 
	C302.155090,321.072052 301.983063,320.269226 301.883606,319.225250 
z"/>
<path fill="#ED0000" opacity="1.000000" stroke="none" 
	d="
M302.870850,325.282684 
	C303.140930,325.806000 303.351044,326.621124 303.471405,327.645447 
	C303.191376,327.094604 303.001099,326.334564 302.870850,325.282684 
z"/>
<path fill="#ED0000" opacity="1.000000" stroke="none" 
	d="
M310.245300,330.716187 
	C309.994324,330.158844 309.822174,329.306854 309.773438,328.247681 
	C310.039307,328.834198 310.181702,329.627869 310.245300,330.716187 
z"/>
<path fill="#ED0000" opacity="1.000000" stroke="none" 
	d="
M367.620087,267.191467 
	C367.862579,267.743805 368.148285,268.605042 368.327576,269.692078 
	C368.035187,269.112030 367.849243,268.306213 367.620087,267.191467 
z"/>
<path fill="#ED0000" opacity="1.000000" stroke="none" 
	d="
M261.360657,291.849365 
	C261.024139,291.755890 260.321228,291.605316 259.668304,291.283203 
	C260.143646,291.338501 260.568939,291.565369 261.360657,291.849365 
z"/>
<path fill="#180909" opacity="1.000000" stroke="none" 
	d="
M239.455505,363.495667 
	C239.659683,363.169983 239.887238,362.998901 240.114777,362.827820 
	C240.170425,363.096985 240.226059,363.366119 240.281708,363.635254 
	C240.014084,363.640289 239.746490,363.645294 239.455505,363.495667 
z"/>
<path fill="#ED0000" opacity="1.000000" stroke="none" 
	d="
M203.284256,327.393768 
	C203.843506,326.975342 204.697067,326.533875 205.851929,326.074585 
	C205.295013,326.494781 204.436798,326.932770 203.284256,327.393768 
z"/>
<path fill="#ED0000" opacity="1.000000" stroke="none" 
	d="
M305.747925,343.239349 
	C305.974457,343.532745 306.142548,344.076569 306.220001,344.785126 
	C305.982727,344.463165 305.836090,343.976471 305.747925,343.239349 
z"/>
<path fill="#ED0000" opacity="1.000000" stroke="none" 
	d="
M177.254349,337.516663 
	C177.511398,337.228790 178.033585,336.942413 178.739563,336.726013 
	C178.455414,337.036713 177.987442,337.277435 177.254349,337.516663 
z"/>
<path fill="#161A1A" opacity="1.000000" stroke="none" 
	d="
M253.052490,168.856003 
	C253.121948,168.861221 253.038330,169.188690 253.038330,169.188690 
	C253.038330,169.188690 252.983032,168.850784 253.052490,168.856003 
z"/>
<path fill="#ED0000" opacity="1.000000" stroke="none" 
	d="
M172.700821,331.512756 
	C172.303314,331.889435 171.595871,332.307343 170.569199,332.764038 
	C170.963608,332.386505 171.677231,331.970245 172.700821,331.512756 
z"/>
<path fill="#ED0000" opacity="1.000000" stroke="none" 
	d="
M224.292892,318.325195 
	C224.686584,317.961121 225.384109,317.595612 226.386169,317.196106 
	C225.992691,317.549347 225.294708,317.936554 224.292892,318.325195 
z"/>
<path fill="#ED0000" opacity="1.000000" stroke="none" 
	d="
M361.184204,267.089294 
	C361.493042,266.867401 361.992798,266.716095 362.687378,266.625946 
	C362.379852,266.844696 361.877441,267.002289 361.184204,267.089294 
z"/>
<path fill="#ED0000" opacity="1.000000" stroke="none" 
	d="
M356.293976,268.102386 
	C356.742279,267.803619 357.493378,267.557770 358.553802,267.334778 
	C358.107697,267.623535 357.352203,267.889404 356.293976,268.102386 
z"/>
<path fill="#ED0000" opacity="1.000000" stroke="none" 
	d="
M233.623260,287.353241 
	C234.137589,287.330994 234.842987,287.526428 235.773529,287.880920 
	C235.270554,287.883636 234.542450,287.727295 233.623260,287.353241 
z"/>
<path fill="#ED0000" opacity="1.000000" stroke="none" 
	d="
M273.300385,297.378601 
	C273.710907,297.022766 274.431305,296.649445 275.468719,296.253174 
	C275.060577,296.607208 274.335419,296.984131 273.300385,297.378601 
z"/>
<path fill="#ED0000" opacity="1.000000" stroke="none" 
	d="
M199.699478,319.520569 
	C199.307007,319.901672 198.604172,320.316528 197.584961,320.770447 
	C197.975433,320.391113 198.682281,319.972687 199.699478,319.520569 
z"/>
<path fill="#ED0000" opacity="1.000000" stroke="none" 
	d="
M243.700592,299.549225 
	C243.303024,299.920105 242.596039,300.324890 241.572815,300.765289 
	C241.968109,300.395020 242.679657,299.989075 243.700592,299.549225 
z"/>
<path fill="#ED0000" opacity="1.000000" stroke="none" 
	d="
M278.297760,295.386047 
	C278.701843,295.031342 279.413849,294.649689 280.439819,294.238037 
	C280.037720,294.591736 279.321716,294.975403 278.297760,295.386047 
z"/>
<path fill="#180909" opacity="1.000000" stroke="none" 
	d="
M195.690903,365.946411 
	C195.598923,365.960205 195.506958,365.973969 195.511887,365.969788 
	C195.608780,365.951843 195.690903,365.946442 195.690903,365.946411 
z"/>
<path fill="#0A0607" opacity="1.000000" stroke="none" 
	d="
M305.809692,188.767761 
	C305.716827,188.765167 305.515350,188.581909 305.201233,188.221924 
	C305.297455,188.220001 305.501587,188.400650 305.809692,188.767761 
z"/>
<path fill="#161A1A" opacity="1.000000" stroke="none" 
	d="
M350.559692,377.450073 
	C350.609985,377.524719 350.406311,377.544067 350.406311,377.544067 
	C350.406311,377.544067 350.509399,377.375397 350.559692,377.450073 
z"/>
<path fill="#161A1A" opacity="1.000000" stroke="none" 
	d="
M352.551208,376.463196 
	C352.588440,376.523071 352.514008,376.403351 352.551208,376.463196 
z"/>
<path fill="#0A0607" opacity="1.000000" stroke="none" 
	d="
M299.784546,182.755478 
	C299.688599,182.751190 299.462830,182.559509 299.094513,182.192551 
	C299.196381,182.186523 299.430634,182.370117 299.784546,182.755478 
z"/>
<path fill="#090A0A" opacity="1.000000" stroke="none" 
	d="
M317.782806,260.682587 
	C317.829987,260.793793 317.443329,260.566498 317.405609,260.488464 
	C317.367889,260.410431 317.735626,260.571381 317.782806,260.682587 
z"/>
<path fill="#0A0607" opacity="1.000000" stroke="none" 
	d="
M300.807312,183.764984 
	C300.713959,183.763947 300.514099,183.582809 300.203918,183.225464 
	C300.300629,183.222031 300.503052,183.400589 300.807312,183.764984 
z"/>
<path fill="#180909" opacity="1.000000" stroke="none" 
	d="
M237.483124,366.473633 
	C237.518311,366.456268 237.447922,366.490997 237.483124,366.473633 
z"/>
<path fill="#F30000" opacity="1.000000" stroke="none" 
	d="
M195.631439,366.220215 
	C195.690903,365.946442 195.608780,365.951843 195.640213,365.925110 
	C195.514526,365.827301 195.357422,365.756256 195.062592,365.905640 
	C194.924896,366.126068 194.936478,366.076477 194.920746,366.056641 
	C195.127335,366.189178 195.349655,366.341583 195.631439,366.220215 
z"/>
<path fill="#0A0607" opacity="1.000000" stroke="none" 
	d="
M304.809692,187.767792 
	C304.716797,187.765472 304.515594,187.582672 304.202271,187.223206 
	C304.298523,187.220978 304.502289,187.401230 304.809692,187.767792 
z"/>
<path fill="#0A0607" opacity="1.000000" stroke="none" 
	d="
M274.492249,278.490173 
	C274.518677,278.479614 274.465820,278.500763 274.492249,278.490173 
z"/>
<path fill="#ED0000" opacity="1.000000" stroke="none" 
	d="
M312.091827,353.759338 
	C311.623260,353.894714 311.209473,353.772583 310.557129,353.428436 
	C310.596222,353.169830 310.873810,353.133240 311.568604,353.048523 
	C312.039398,353.167480 312.092987,353.334625 312.091827,353.759338 
z"/>
<path fill="#0A0607" opacity="1.000000" stroke="none" 
	d="
M301.807343,184.764999 
	C301.713959,184.763855 301.513947,184.582504 301.203369,184.224869 
	C301.300079,184.221497 301.502716,184.400238 301.807343,184.764999 
z"/>
<path fill="#180909" opacity="1.000000" stroke="none" 
	d="
M189.512238,351.518921 
	C189.483078,351.532013 189.541412,351.505829 189.512238,351.518921 
z"/>
<path fill="#161A1A" opacity="1.000000" stroke="none" 
	d="
M190.504684,283.507965 
	C190.502182,283.493805 190.507187,283.522125 190.504684,283.507965 
z"/>
<path fill="#161A1A" opacity="1.000000" stroke="none" 
	d="
M383.479553,349.484497 
	C383.516388,349.466400 383.442749,349.502563 383.479553,349.484497 
z"/>
<path fill="#180909" opacity="1.000000" stroke="none" 
	d="
M191.109360,349.079895 
	C191.109360,349.079895 190.884491,349.228424 190.884491,349.228424 
	C190.884491,349.228424 190.824020,349.003113 190.918488,348.998505 
	C191.012955,348.993896 191.109360,349.079895 191.109360,349.079895 
z"/>
<path fill="#0A0607" opacity="1.000000" stroke="none" 
	d="
M302.807831,185.765259 
	C302.714142,185.764359 302.513977,185.582977 302.203430,185.225067 
	C302.300446,185.221436 302.503235,185.400208 302.807831,185.765259 
z"/>
<path fill="#180909" opacity="1.000000" stroke="none" 
	d="
M190.968735,348.946777 
	C191.101791,348.643982 191.309631,348.416168 191.734436,348.079346 
	C191.920837,347.942444 191.995697,348.010040 192.030762,348.048950 
	C191.900986,348.351257 191.702744,348.586487 191.290237,348.936707 
	C191.109360,349.079895 191.012955,348.993896 190.968735,348.946777 
z"/>
<path fill="#0A0607" opacity="1.000000" stroke="none" 
	d="
M303.808777,186.766632 
	C303.715546,186.764999 303.514923,186.582977 303.203033,186.224411 
	C303.299652,186.221497 303.502869,186.400955 303.808777,186.766632 
z"/>
<path fill="#080001" opacity="1.000000" stroke="none" 
	d="
M288.376648,280.956909 
	C288.048035,278.002014 287.580505,274.897064 288.313110,272.107178 
	C288.891815,269.903290 290.945831,268.086792 292.716248,266.043640 
	C293.201630,266.156158 293.315399,266.323364 293.412231,267.087402 
	C293.794159,269.079163 294.192993,270.474121 294.591858,271.869110 
	C295.777496,276.907776 294.353180,280.267578 288.376648,280.956909 
z"/>
<path fill="#ED0000" opacity="1.000000" stroke="none" 
	d="
M294.662598,271.489380 
	C294.192993,270.474121 293.794159,269.079163 293.583466,267.337830 
	C294.092224,268.364197 294.412781,269.736908 294.662598,271.489380 
z"/>
<path fill="#ED0000" opacity="1.000000" stroke="none" 
	d="
M248.245529,274.530640 
	C248.593933,274.484283 248.971451,274.686920 249.667908,274.925323 
	C249.416107,274.900604 248.845367,274.840149 248.245529,274.530640 
z"/>
<path fill="#ED0000" opacity="1.000000" stroke="none" 
	d="
M299.970520,231.131927 
	C300.217804,231.478775 300.351044,231.989944 300.395691,232.756561 
	C300.156891,232.440094 300.006683,231.868164 299.970520,231.131927 
z"/>
<path fill="#000000" opacity="1.000000" stroke="none" 
	d="
M211.654526,350.103577 
	C212.666306,350.671906 213.368027,351.281799 214.375854,352.065247 
	C213.052597,355.446777 211.265701,353.032593 209.260223,352.163116 
	C209.776306,351.343719 210.560394,350.744415 211.654526,350.103577 
z"/>
<path fill="#000000" opacity="1.000000" stroke="none" 
	d="
M214.506042,385.514404 
	C214.485245,385.519806 214.526855,385.508972 214.506042,385.514404 
z"/>
</svg>